# xmcd
#
# Track frame offsets: 
#        150
#        12640
#        29684
#        50227
#        73927
#        100074
#        126184
#        140044
#        165927
#        196111
#
# Disc length: 2922 seconds
#
# Revision: 0
# Processed by: cddbd v1.5.2PL0 Copyright (c) Steve Scherf et al.
# Submitted via: ExactAudioCopy v1.0b3
#
DISCID=930b680a
DTITLE=New World Generation - New World Generation
DYEAR=2011
DGENRE=Funk
TTITLE0=Worry
TTITLE1=Free Your Mind
TTITLE2=How Do You Feel
TTITLE3=Orison (A Prayer)
TTITLE4=Sunshine (Alternative Mix)
TTITLE5=Curious Soul (Alternative Mix)
TTITLE6=Listen From Your Soul
TTITLE7=We'll Find A Way
TTITLE8=Loving You
TTITLE9=Someday The World Will Be As One
EXTD=
EXTT0=
EXTT1=
EXTT2=
EXTT3=
EXTT4=
EXTT5=
EXTT6=
EXTT7=
EXTT8=
EXTT9=
PLAYORDER=
